<svg xmlns="http://www.w3.org/2000/svg" version="1.1" xmlns:xlink="http://www.w3.org/1999/xlink" xmlns:svgjs="http://svgjs.com/svgjs" width="512" height="512" x="0" y="0" viewBox="0 0 512 512" style="enable-background:new 0 0 512 512" xml:space="preserve" class=""><g><path xmlns="http://www.w3.org/2000/svg" d="m215.259 327.6h-191.526a23.811 23.811 0 0 0 -23.733 23.8v136.9a23.728 23.728 0 0 0 23.733 23.7h191.526a23.724 23.724 0 0 0 23.741-23.7v-136.9a23.807 23.807 0 0 0 -23.739-23.8zm267.9-109.2h-181.281a28.845 28.845 0 0 0 -28.84 28.8v236a28.846 28.846 0 0 0 28.84 28.8h181.282a28.841 28.841 0 0 0 28.84-28.8v-236a28.841 28.841 0 0 0 -28.84-28.8zm5.102-218.4h-191.519a23.773 23.773 0 0 0 -23.742 23.737v136.863a23.817 23.817 0 0 0 23.739 23.8h191.522a23.813 23.813 0 0 0 23.739-23.8v-136.863a23.769 23.769 0 0 0 -23.739-23.737zm-459.427 293.6h181.289a28.823 28.823 0 0 0 28.825-28.8v-235.961a28.857 28.857 0 0 0 -28.825-28.839h-181.289a28.869 28.869 0 0 0 -28.834 28.839v235.961a28.835 28.835 0 0 0 28.833 28.8z" fill="#6c27b3" fill-rule="evenodd" data-original="#6c27b3" class=""></path></g></svg>