<svg xmlns="http://www.w3.org/2000/svg" version="1.1" xmlns:xlink="http://www.w3.org/1999/xlink" xmlns:svgjs="http://svgjs.com/svgjs" width="512" height="512" x="0" y="0" viewBox="0 0 62 62" style="enable-background:new 0 0 512 512" xml:space="preserve" class=""><g><g xmlns="http://www.w3.org/2000/svg"><g><g><path d="m23.49 61h-12.49v-11.76c0 1.13.45 2.21 1.24 3l7 7c1.13 1.13 2.65 1.76 4.25 1.76z" fill="#ff826e" data-original="#ff826e"></path></g><g><path d="m27 53v8h-3.51c-1.6 0-3.12-.63-4.25-1.76l-7-7c-.79-.79-1.24-1.87-1.24-3 0-1.17.48-2.23 1.24-3 .77-.76 1.83-1.24 3-1.24 1.13 0 2.21.45 3 1.24l6.76 6.76z" fill="#ff826e" data-original="#ff826e"></path></g><g><path d="m31 57v4h-4v-8h4z" fill="#fc6e51" data-original="#fc6e51"></path></g><g><path d="m32.77 25.15-.56 2.82c-.55-.6-1.34-.97-2.21-.97h-1v-1c0-1.38-.56-2.64-1.46-3.55s-2.16-1.49-3.54-1.5l-.55.55c-.93.93-2.19 1.45-3.5 1.45-1.61 0-3.03-.77-3.94-1.96l-.01.01-.55.55c-.93.93-2.19 1.45-3.5 1.45-1.58 0-2.98-.74-3.89-1.89-1.76.42-3.06 2-3.06 3.89v2h-1c-.87 0-1.66.37-2.21.97l-.56-2.82c-.15-.77-.23-1.54-.23-2.32 0-6.53 5.3-11.83 11.83-11.83h8.34c3.27 0 6.22 1.32 8.36 3.47 2.15 2.14 3.47 5.09 3.47 8.36 0 .78-.08 1.55-.23 2.32z" fill="#656d78" data-original="#656d78"></path></g><g><path d="m55 9v2h-4v-2c0-1.1-.45-2.1-1.17-2.83-.73-.72-1.73-1.17-2.83-1.17-2.21 0-4 1.79-4 4v6h-4v-6c0-2.21.9-4.21 2.34-5.66 1.45-1.44 3.45-2.34 5.66-2.34 4.42 0 8 3.58 8 8z" fill="#969faa" data-original="#969faa" class=""></path></g><g><path d="m56 15h-13-4-1c-.55 0-1 .45-1 1v14c0 .55.45 1 1 1h18c.55 0 1-.45 1-1v-14c0-.55-.45-1-1-1z" fill="#fcd770" data-original="#fcd770" class=""></path></g><g><path d="m61 58v2c0 .55-.45 1-1 1h-29v-4h6 22 1c.55 0 1 .45 1 1z" fill="#aab2bd" data-original="#aab2bd"></path></g><g><path d="m51 37v13c0 .55-.45 1-1 1h-2c-.55 0-1-.45-1-1v-19-3c0-.55.45-1 1-1h2c.55 0 1 .45 1 1v3z" fill="#ccd1d9" data-original="#ccd1d9"></path></g><g><path d="m37 56v1h-6v-4h3c1.66 0 3 1.34 3 3z" fill="#f0d0b4" data-original="#f0d0b4"></path></g><g><path d="m30 27c.87 0 1.66.37 2.21.97.49.53.79 1.24.79 2.03 0 .83-.34 1.58-.88 2.12s-1.29.88-2.12.88h-1v-6z" fill="#f0d0b4" data-original="#f0d0b4"></path></g><g><path d="m16.01 20.99c.91 1.19 2.33 1.96 3.94 1.96 1.31 0 2.57-.52 3.5-1.45l.55-.55c1.38.01 2.64.59 3.54 1.5s1.46 2.17 1.46 3.55v1 6 2c0 5.52-4.48 10-10 10h-3.76-.24c-5.52 0-10-4.48-10-10v-2-6-2c0-1.89 1.3-3.47 3.06-3.89.91 1.15 2.31 1.89 3.89 1.89 1.31 0 2.57-.52 3.5-1.45l.55-.55z" fill="#f0d0b4" data-original="#f0d0b4"></path></g><g><path d="m5 27v6h-1c-.83 0-1.58-.34-2.12-.88s-.88-1.29-.88-2.12c0-.79.3-1.5.79-2.03.55-.6 1.34-.97 2.21-.97z" fill="#f0d0b4" data-original="#f0d0b4"></path></g><g><path d="m11 35h12c0 1.66-.67 3.16-1.76 4.24-1.08 1.09-2.58 1.76-4.24 1.76-3.31 0-6-2.69-6-6z" fill="#ff826e" data-original="#ff826e"></path></g></g><g><path d="m12 28c1.103 0 2 .897 2 2h2c0-2.206-1.794-4-4-4s-4 1.794-4 4h2c0-1.103.897-2 2-2z" fill="#000000" data-original="#000000" class=""></path><path d="m22 28c1.103 0 2 .897 2 2h2c0-2.206-1.794-4-4-4s-4 1.794-4 4h2c0-1.103.897-2 2-2z" fill="#000000" data-original="#000000" class=""></path><path d="m24 35v-1h-14v1c0 3.859 3.14 7 7 7s7-3.141 7-7zm-7 5c-2.415 0-4.435-1.721-4.899-4h9.799c-.465 2.279-2.485 4-4.9 4z" fill="#000000" data-original="#000000" class=""></path><path d="m60 56h-.18l-4-20h-3.82v-4h4c1.103 0 2-.897 2-2v-14c0-1.103-.897-2-2-2h-12v-5c0-1.654 1.346-3 3-3s3 1.346 3 3v3h6v-3c0-4.962-4.038-9-9-9s-9 4.038-9 9v5c-1.103 0-2 .897-2 2v14c0 1.103.897 2 2 2h8v18c0 1.103.897 2 2 2h2c1.103 0 2-.897 2-2v-12h2.18l3.6 18h-19.78c0-2.206-1.794-4-4-4h-8.586l-6.019-6.02c5.882-.21 10.605-5.048 10.605-10.98v-1c2.206 0 4-1.794 4-4 0-.849-.27-1.635-.724-2.283l.475-2.373c.166-.827.249-1.674.249-2.515 0-7.074-5.755-12.829-12.829-12.829h-8.343c-7.073 0-12.828 5.755-12.828 12.829 0 .841.083 1.688.249 2.516l.475 2.372c-.454.649-.724 1.434-.724 2.283 0 2.206 1.794 4 4 4v1c0 4.888 3.206 9.036 7.625 10.465-.997.955-1.625 2.291-1.625 3.777v12.758h50c1.103 0 2-.897 2-2v-2c0-1.103-.897-2-2-2zm-20-47c0-3.86 3.14-7 7-7s7 3.14 7 7v1h-2v-1c0-2.757-2.243-5-5-5s-5 2.243-5 5v5h-2zm6 19v2h-8v-14h18v14h-4v-2c0-1.103-.897-2-2-2h-2c-1.103 0-2 .897-2 2zm2 22v-22h2l.001 22zm-12 6h-4v-2h2c1.103 0 2 .897 2 2zm-6 4h-2v-6h2zm0-28v-4c1.103 0 2 .897 2 2s-.897 2-2 2zm-28-2c0-1.103.897-2 2-2v4c-1.103 0-2-.897-2-2zm2-5v1c-.538 0-1.051.11-1.52.304l-.27-1.351c-.139-.699-.21-1.414-.21-2.124 0-5.971 4.858-10.829 10.829-10.829h8.343c5.97 0 10.828 4.858 10.828 10.829 0 .71-.071 1.425-.21 2.124l-.271 1.352c-.469-.195-.981-.305-1.519-.305 0-3.303-2.687-6.017-5.99-6.05l-.42-.004-.847.848c-.746.746-1.738 1.157-2.793 1.157-2.178-.001-3.95-1.773-3.95-3.951v-.05l-2 .05c0 1.033.266 2.005.731 2.853-.745.739-1.731 1.147-2.781 1.147-2.178 0-3.95-1.772-3.95-3.95v-.05l-2 .05c0 .925.219 1.799.597 2.581-1.57.86-2.597 2.504-2.597 4.369zm11 19c-4.962 0-9-4.037-9-9v-10c0-1.2.703-2.253 1.761-2.73 1.076 1.068 2.556 1.73 4.189 1.73 1.509 0 2.928-.563 4.029-1.582 1.054.948 2.444 1.531 3.971 1.531 1.589 0 3.083-.619 4.207-1.743l.234-.233c2.023.222 3.609 1.951 3.609 4.027v9c0 4.963-4.038 9-9 9zm-3 16v-6.586l6.535 6.536c.018.018.038.033.056.051h-6.591zm7.95-1.465-7-7.001c-.613-.611-.95-1.425-.95-2.292 0-1.788 1.455-3.242 3.243-3.242.866 0 1.68.337 2.293.949l7.05 7.051h1.414v6h-2.515c-1.336 0-2.591-.521-3.535-1.465zm40.05 1.465h-28v-2h28z" fill="#000000" data-original="#000000" class=""></path><path d="m0 52h2v2h-2z" fill="#000000" data-original="#000000" class=""></path><path d="m4 52h4v2h-4z" fill="#000000" data-original="#000000" class=""></path><path d="m0 56h8v2h-8z" fill="#000000" data-original="#000000" class=""></path><path d="m0 60h2v2h-2z" fill="#000000" data-original="#000000" class=""></path><path d="m4 60h2v2h-2z" fill="#000000" data-original="#000000" class=""></path><path d="m39.707 50.707 3.707-3.707-3.707-3.707-1.414 1.414 1.293 1.293h-11.586v2h11.586l-1.293 1.293z" fill="#000000" data-original="#000000" class=""></path><path d="m32 38h7.586l-1.293 1.293 1.414 1.414 3.707-3.707-3.707-3.707-1.414 1.414 1.293 1.293h-7.586z" fill="#000000" data-original="#000000" class=""></path></g></g></g></svg>